<svg xmlns="http://www.w3.org/2000/svg" viewBox="0 0 500 500"><g id="freepik--background-complete--inject-132"><rect y="382.4" width="500" height="0.25" style="fill:#ebebeb"></rect><rect x="78.54" y="390.79" width="33.12" height="0.25" style="fill:#ebebeb"></rect><rect x="133.33" y="398" width="30.17" height="0.25" style="fill:#ebebeb"></rect><rect x="56.85" y="400.07" width="38.25" height="0.25" style="fill:#ebebeb"></rect><rect x="434" y="399.53" width="15.9" height="0.25" style="fill:#ebebeb"></rect><rect x="391.47" y="399.53" width="39.32" height="0.25" style="fill:#ebebeb"></rect><rect x="250" y="390.66" width="30.33" height="0.25" style="fill:#ebebeb"></rect><rect x="284.67" y="390.66" width="72.1" height="0.25" style="fill:#ebebeb"></rect><path d="M237,337.8H43.91a5.71,5.71,0,0,1-5.7-5.71V60.66A5.71,5.71,0,0,1,43.91,55H237a5.71,5.71,0,0,1,5.71,5.71V332.09A5.71,5.71,0,0,1,237,337.8ZM43.91,55.2a5.46,5.46,0,0,0-5.45,5.46V332.09a5.46,5.46,0,0,0,5.45,5.46H237a5.47,5.47,0,0,0,5.46-5.46V60.66A5.47,5.47,0,0,0,237,55.2Z" style="fill:#ebebeb"></path><path d="M453.31,337.8H260.21a5.72,5.72,0,0,1-5.71-5.71V60.66A5.72,5.72,0,0,1,260.21,55h193.1A5.71,5.71,0,0,1,459,60.66V332.09A5.71,5.71,0,0,1,453.31,337.8ZM260.21,55.2a5.47,5.47,0,0,0-5.46,5.46V332.09a5.47,5.47,0,0,0,5.46,5.46h193.1a5.47,5.47,0,0,0,5.46-5.46V60.66a5.47,5.47,0,0,0-5.46-5.46Z" style="fill:#ebebeb"></path><rect x="380.07" y="256.64" width="37.25" height="125.76" style="fill:#e6e6e6"></rect><polygon points="411.13 382.4 417.32 382.4 417.32 371.08 404.62 371.08 411.13 382.4" style="fill:#f0f0f0"></polygon><rect x="228.44" y="256.64" width="37.25" height="125.76" style="fill:#e6e6e6"></rect><rect x="260.29" y="256.64" width="157.04" height="121.41" style="fill:#f0f0f0"></rect><rect x="265.1" y="262.02" width="147.42" height="33.3" style="fill:#e6e6e6"></rect><path d="M345.77,272.37H331.84c-6,0-11.83-4.11-16-11.36h45.91C357.6,268.26,351.82,272.37,345.77,272.37Z" style="fill:#f0f0f0"></path><polygon points="266.49 382.4 260.29 382.4 260.29 371.08 272.99 371.08 266.49 382.4" style="fill:#f0f0f0"></polygon><rect x="265.1" y="300.7" width="147.42" height="33.3" style="fill:#e6e6e6"></rect><path d="M345.77,311H331.84c-6,0-11.83-4.1-16-11.36h45.91C357.6,306.94,351.82,311,345.77,311Z" style="fill:#f0f0f0"></path><rect x="265.1" y="339.38" width="147.42" height="33.3" style="fill:#e6e6e6"></rect><path d="M345.77,349.72H331.84c-6,0-11.83-4.11-16-11.36h45.91C357.6,345.61,351.82,349.72,345.77,349.72Z" style="fill:#f0f0f0"></path><rect x="273.43" y="93.55" width="160.86" height="78.08" style="fill:#f0f0f0"></rect><rect x="276.14" y="93.55" width="163.95" height="78.08" style="fill:#f5f5f5"></rect><rect x="325.57" y="58.73" width="65.09" height="147.72" transform="translate(490.71 -225.52) rotate(90)" style="fill:#fff"></rect><path d="M385.56,229.06c2.9-30,4.91-78.78,3.35-95.08a2,2,0,0,0-.82-1.41h0a2,2,0,0,0-3.18,1.68c.27,8.08.59,28.27-1.13,63.1-.86,17.33-2.09,29.2-1.24,31.71Z" style="fill:#f0f0f0"></path><path d="M393.87,164.46c6.62-8.52,20.32-15.26,34.36-16.29,5.51-.41-16.63,10.58-25.75,21.56-7.07,8.52-15,22.56-17.64,30.22C386.39,184.14,387.24,173,393.87,164.46Z" style="fill:#f0f0f0"></path><path d="M380,162.62c-6.85-9.54-22.67-16.89-39.79-17.72-6.72-.32,18.85,11.66,28.39,23.94,7.41,9.53,15,25.33,17.1,34C386.21,184.86,386.86,172.17,380,162.62Z" style="fill:#f0f0f0"></path><path d="M393.41,136.38c5.23-7.11,16.78-12.95,29-14.14,4.8-.47-13.86,9-21.1,18.22-5.63,7.12-11.61,18.77-13.41,25.08C388.2,152.61,388.19,143.49,393.41,136.38Z" style="fill:#f0f0f0"></path><path d="M382.88,137.84c-5.81-8.09-19.2-14.3-33.7-15-5.69-.27,16,9.87,24,20.27,6.28,8.07,12.72,21.45,14.49,28.79C388.13,156.66,388.68,145.92,382.88,137.84Z" style="fill:#f0f0f0"></path><path d="M389.9,196.54c3.78-5.36,12.27-9.87,21.34-10.95,3.56-.42-10.16,6.93-15.4,13.86-4.07,5.38-8.34,14.12-9.58,18.83C386.27,208.67,386.13,201.9,389.9,196.54Z" style="fill:#f0f0f0"></path><path d="M383,193.52c-3.28-5.32-11.4-9.81-20.45-10.89-3.56-.42,9.56,6.89,14.17,13.76,3.57,5.34,7,14,7.8,18.68C385.5,205.55,386.32,198.84,383,193.52Z" style="fill:#f0f0f0"></path><path d="M384.33,256.64h0c7.23,0,13.2-1.51,13.61-8.72l1.21-20.87H369.52l1.21,20.87C371.14,255.13,377.11,256.64,384.33,256.64Z" style="fill:#e6e6e6"></path><path d="M369.69,231.8H399a2.33,2.33,0,0,0,2.31-2.08l.45-4a2.34,2.34,0,0,0-2.32-2.59H369.25a2.34,2.34,0,0,0-2.32,2.59l.44,4A2.34,2.34,0,0,0,369.69,231.8Z" style="fill:#f0f0f0"></path><polygon points="275.25 256.64 255.6 256.64 261.42 213.57 275.25 213.57 275.25 256.64" style="fill:#e6e6e6"></polygon><polygon points="304.09 256.64 266.85 256.64 259.91 206.23 297.16 206.23 304.09 256.64" style="fill:#f0f0f0"></polygon><polygon points="309.06 256.64 270.31 256.64 263.38 206.23 302.13 206.23 309.06 256.64" style="fill:#f5f5f5"></polygon><polygon points="273.73 252.67 267.89 210.2 298.7 210.2 304.54 252.67 273.73 252.67" style="fill:#fff"></polygon><path d="M291.1,242.87h-7.34a2.64,2.64,0,0,1-2.62-2.28L278.72,223a2.63,2.63,0,0,1,.62-2.1,2.68,2.68,0,0,1,2-.9h7.34a2.65,2.65,0,0,1,2.62,2.28l2.42,17.59a2.64,2.64,0,0,1-2.62,3Zm-9-2.42a1.65,1.65,0,0,0,1.63,1.42h7.34a1.64,1.64,0,0,0,1.24-.56,1.67,1.67,0,0,0,.39-1.31l-2.42-17.58a1.65,1.65,0,0,0-1.63-1.42h-7.34a1.62,1.62,0,0,0-1.24.56,1.59,1.59,0,0,0-.39,1.3Z" style="fill:#f5f5f5"></path><rect x="63.12" y="91.25" width="148.38" height="156.58" style="fill:#e6e6e6"></rect><path d="M227.41,86.18H53.52a1.47,1.47,0,0,0-1.47,1.48h0a1.47,1.47,0,0,0,1.47,1.47H227.41a1.47,1.47,0,0,0,1.47-1.47h0A1.47,1.47,0,0,0,227.41,86.18Z" style="fill:#e6e6e6"></path><rect x="66.07" y="91.25" width="151.74" height="156.58" style="fill:#f0f0f0"></rect><rect x="72.46" y="102.49" width="138.95" height="134.11" transform="translate(311.48 27.61) rotate(90)" style="fill:#fafafa"></rect><polygon points="105.32 239.02 157.06 100.06 181.48 100.06 129.75 239.02 105.32 239.02" style="fill:#fff"></polygon><polygon points="134.99 239.02 186.73 100.06 196.25 100.06 144.51 239.02 134.99 239.02" style="fill:#fff"></polygon><rect x="138.95" y="168.98" width="138.95" height="1.12" transform="translate(377.97 -38.89) rotate(90)" style="fill:#e6e6e6"></rect><g style="opacity:0.6000000000000001"><polygon points="71.24 308.07 52.61 308.07 55.56 83.55 74.2 83.55 71.24 308.07" style="fill:#f0f0f0"></polygon><polygon points="78.5 308.07 63.98 308.07 66.94 83.55 81.45 83.55 78.5 308.07" style="fill:#e6e6e6"></polygon><polygon points="89.87 308.07 71.24 308.07 74.2 83.55 92.83 83.55 89.87 308.07" style="fill:#f0f0f0"></polygon><polygon points="97.13 308.07 82.61 308.07 85.57 83.55 100.09 83.55 97.13 308.07" style="fill:#e6e6e6"></polygon><polygon points="108.5 308.07 89.87 308.07 92.83 83.55 111.46 83.55 108.5 308.07" style="fill:#f0f0f0"></polygon></g><g style="opacity:0.6000000000000001"><polygon points="214.73 308.07 225.26 308.07 226.67 83.55 216.14 83.55 214.73 308.07" style="fill:#f0f0f0"></polygon><polygon points="210.63 308.07 218.83 308.07 220.25 83.55 212.04 83.55 210.63 308.07" style="fill:#e6e6e6"></polygon><polygon points="204.2 308.07 214.73 308.07 216.14 83.55 205.61 83.55 204.2 308.07" style="fill:#f0f0f0"></polygon><polygon points="200.1 308.07 208.3 308.07 209.72 83.55 201.51 83.55 200.1 308.07" style="fill:#e6e6e6"></polygon><polygon points="193.67 308.07 204.2 308.07 205.61 83.55 195.08 83.55 193.67 308.07" style="fill:#f0f0f0"></polygon></g></g><g id="freepik--Shadow--inject-132"><ellipse id="freepik--path--inject-132" cx="250" cy="416.24" rx="193.89" ry="11.32" style="fill:#f5f5f5"></ellipse></g><g id="freepik--Character--inject-132"><path d="M284.62,118.79c-6-8.12-4.61-15.21,0-20.31,5.75-6.4,15.14-6.35,21.4-3.08,9.8,5.11,11.91,27.5-4.46,30.66A132.71,132.71,0,0,1,284.62,118.79Z" style="fill:#263238"></path><path d="M304.11,96.81c6-3.53,4.33-10.38,9.75-14,7.54-5,23.79-2.83,18.71,9.67s13,13.22,7.75,25.64-20.5,20-24.42,2c-2.93-13.49,9.52-30.87-.53-29-6.27,1.16-8.36,7.61-8.36,7.61Z" style="fill:#263238"></path><path d="M289.2,149.75c-.82,2.27-1.71,4.33-2.66,6.46s-2,4.18-3.1,6.23a54.1,54.1,0,0,1-8.27,11.85A21.83,21.83,0,0,1,272.1,177a21.06,21.06,0,0,1-3.48,2,36.68,36.68,0,0,1-7,2.32,59,59,0,0,1-13.9,1.51,2.17,2.17,0,0,1-.51-4.27l.1,0a102.92,102.92,0,0,0,12.33-3.71,37,37,0,0,0,5.48-2.57,16.27,16.27,0,0,0,2.22-1.53,14.83,14.83,0,0,0,1.86-1.86,36.31,36.31,0,0,0,3.47-4.86c1.08-1.77,2.12-3.6,3.08-5.51,1.9-3.78,3.7-7.82,5.25-11.7l0-.06a4.35,4.35,0,0,1,8.13,3.1Z" style="fill:#b55b52"></path><path d="M287.9,142.35c-8.26.94-12.81,13.33-12.81,13.33l8.46,11.92s10-11.33,10.87-16.39C295.29,146,294,141.64,287.9,142.35Z" style="fill:#263238"></path><path d="M283.38,149.93c2.77-1.74,5.79-.78,8.36,2.45a8.69,8.69,0,0,1,1.05,3c-2.5,4.53-9.25,12.21-9.25,12.21l-3.87-5.45C279.38,158.92,281.59,151,283.38,149.93Z" style="opacity:0.2"></path><path d="M249.23,179,243,175.64l-.17,8.12s4.16.9,6.91-1.32Z" style="fill:#b55b52"></path><polygon points="236.75 175.92 237.84 182.55 242.87 183.76 243.04 175.64 236.75 175.92" style="fill:#b55b52"></polygon><path d="M268.15,161.31l-5.46-4.48-37.2,55.89L231,217.2c6.28,5.14,19.69-3.2,30-18.64S274.43,166.45,268.15,161.31Z" style="fill:#407BFF"></path><path d="M268.15,161.31l-5.46-4.48-37.2,55.89L231,217.2c6.28,5.14,19.69-3.2,30-18.64S274.43,166.45,268.15,161.31Z" style="opacity:0.1"></path><ellipse cx="244.09" cy="184.78" rx="33.61" ry="14.6" transform="translate(-42.56 292.26) rotate(-57.68)" style="fill:#407BFF"></ellipse><path d="M237.19,193.94l5-7.54a8,8,0,0,1-.07-4.77,18.91,18.91,0,0,1,2.63-5.51,15.2,15.2,0,0,1,4.06-4.34c1.39-.92,2.58-1.14,3.55-.66l1.22-1.82,1.06.87L253.44,172a4.42,4.42,0,0,1,.56,3.47,16.55,16.55,0,0,1-2,5l-2.25-.92a6.13,6.13,0,0,0,1-3.6l-4.69,7a8.2,8.2,0,0,1,.38,5,21.1,21.1,0,0,1-7,10.13q-2.28,1.58-4.05.91l-1.21,1.82-1.06-.87,1.15-1.73a5,5,0,0,1-.51-4,21.7,21.7,0,0,1,2.64-6.31L238.7,189a14.1,14.1,0,0,0-1.22,2.84A6.16,6.16,0,0,0,237.19,193.94ZM249.77,175a2.63,2.63,0,0,0-1.5.66,7.8,7.8,0,0,0-2.47,3.67,4.07,4.07,0,0,0-.17,1.9Zm-11.68,20a2.09,2.09,0,0,0,1.72-.52,8.74,8.74,0,0,0,3-4.38,3.55,3.55,0,0,0-.05-2.12Z" style="fill:#fff"></path><path d="M261.05,175.38c.74-4.9,0-8.83-2.32-10.76-5.11-4.19-16,2.61-24.41,15.18a54.12,54.12,0,0,0-7.71,17c.86-5.74,3.71-12.81,8.22-19.6,8.37-12.57,19.3-19.36,24.41-15.18C262,164.27,262.5,169.28,261.05,175.38Z" style="opacity:0.1"></path><polygon points="333.55 361.81 325.15 362.61 320.87 343.04 329.27 342.24 333.55 361.81" style="fill:#b55b52"></polygon><polygon points="380.34 349.71 372.53 352.77 365 334.21 372.81 331.15 380.34 349.71" style="fill:#b55b52"></polygon><path d="M370.26,348.93l8.56-4.26a.69.69,0,0,1,.87.22l4.34,6.29a1.37,1.37,0,0,1-.54,2c-3,1.44-4.32,2.15-8.09,4-2.32,1.15-7.49,3.86-10.69,5.45s-4.94-1.49-3.75-2.44c5.33-4.25,7.09-7.46,8.26-10.15A2.23,2.23,0,0,1,370.26,348.93Z" style="fill:#263238"></path><path d="M323.51,358.25h10.1a.82.82,0,0,1,.79.61l2.2,8a1.25,1.25,0,0,1-1.23,1.6c-3.53-.06-5.22,0-9.66,0H312.15c-3.69,0-4.5-3.74-3-4.07,6.85-1.52,10.8-3.61,12.91-5.6A2.06,2.06,0,0,1,323.51,358.25Z" style="fill:#263238"></path><polygon points="320.88 343.05 323.08 353.13 331.66 353.13 329.28 342.24 320.88 343.05" style="opacity:0.2"></polygon><polygon points="372.81 331.16 365 334.22 368.89 343.78 376.69 340.72 372.81 331.16" style="opacity:0.2"></polygon><path d="M313.54,133.9c6.68-.77,11,2.41,11.3,9.08.88,23.51,3.48,28.92,7.41,41.08l-33.31,9.27c-11.84-25.64-16-37.73-17.32-43.42a6.18,6.18,0,0,1,3.22-6.75A77.38,77.38,0,0,1,313.54,133.9Z" style="fill:#263238"></path><path d="M303.41,118.14c.4,5.13,1.73,14,6,16.35,0,0-.63,3.17-11.67,13.74-6.81-5.74-3.33-9.59-3.33-9.59,5.07-2.81,3.88-6.47,1.88-10Z" style="fill:#b55b52"></path><path d="M302.64,119.29a21.26,21.26,0,0,1,.3,8.91c-.38,2-2.56,3.52-5,4.39a13.8,13.8,0,0,0-1.62-3.94Z" style="opacity:0.2"></path><path d="M305.37,108.45c1.63,8.29,2.5,11.76-.52,17-4.55,7.92-15.09,8.12-19.17.48-3.67-6.87-5.73-19.27,1.41-24.61A11.53,11.53,0,0,1,305.37,108.45Z" style="fill:#b55b52"></path><path d="M309.7,113.5a6.11,6.11,0,0,1-1.14,4.57c-1.3,1.73-3.26.89-4-1-.66-1.72-.79-4.7,1.05-5.74A2.77,2.77,0,0,1,309.7,113.5Z" style="fill:#b55b52"></path><path d="M298.1,104.06c-.31,3.17,2.23,8.59,7,9.85,4.94-5.68,1.68-13.47-2.86-13.63S298.1,104.06,298.1,104.06Z" style="fill:#263238"></path><path d="M291.44,95.42c-7.29.33-15.11,3.58-12.4,15,6.36-1.33,24.06-3.31,25.42-7.85C302.67,96.74,296.22,95.2,291.44,95.42Z" style="fill:#263238"></path><path d="M298.94,193.33S297,260.61,302.41,286c5.61,26.42,18.28,64.18,18.28,64.18l11.9-.77s-7.69-49.37-10-69.74c-3.26-28.08.79-93.15.79-93.15Z" style="fill:#407BFF"></path><path d="M315.7,214.37c.54-6.1,5.14-4.93,6.17,3.33-.45,13-.77,28.09-.51,41.3C316.4,249.31,314.47,228.25,315.7,214.37Z" style="opacity:0.2"></path><polygon points="334.1 350.18 319.77 351.15 317.78 344.43 333.29 342.79 334.1 350.18" style="fill:#263238"></polygon><path d="M310.69,190.06s10.14,56.4,23.91,86.75c11.12,24.51,31.27,64,31.27,64l10.93-4.09s-17.09-44.83-23.27-62.07c-15.39-43-7-69.1-21.28-90.59Z" style="fill:#407BFF"></path><polygon points="378.09 337.76 365.48 342.15 361.89 335.69 376.9 331.97 378.09 337.76" style="fill:#263238"></polygon><path d="M332.2,182l2.34,2.57c.18.2,0,.51-.42.61l-34.93,9.73c-.3.08-.59,0-.66-.18l-1.13-2.9c-.08-.2.13-.45.46-.54l33.73-9.39A.61.61,0,0,1,332.2,182Z" style="fill:#263238"></path><path d="M328.72,187l.91-.26c.18-.05.29-.18.24-.29l-1.5-3.75c0-.11-.22-.16-.4-.11l-.91.25c-.18,0-.29.18-.25.29l1.51,3.76C328.36,187,328.54,187.05,328.72,187Z" style="fill:#407BFF"></path><path d="M301.82,194.48l.91-.25c.17,0,.29-.18.24-.29l-1.5-3.75c0-.11-.23-.16-.41-.11l-.9.25c-.18,0-.29.18-.25.29l1.5,3.76C301.46,194.49,301.64,194.53,301.82,194.48Z" style="fill:#407BFF"></path><path d="M315.27,190.74l.91-.25c.18-.05.29-.18.24-.29l-1.5-3.76c0-.11-.23-.16-.41-.11l-.9.25c-.18,0-.29.19-.25.3l1.51,3.75C314.91,190.74,315.09,190.79,315.27,190.74Z" style="fill:#407BFF"></path><path d="M293.59,114c.17.67,0,1.3-.47,1.41s-.93-.33-1.1-1,0-1.29.47-1.41S293.42,113.31,293.59,114Z" style="fill:#263238"></path><path d="M286.08,115.94c.18.66,0,1.29-.47,1.41s-.93-.34-1.1-1,0-1.3.47-1.41S285.91,115.27,286.08,115.94Z" style="fill:#263238"></path><path d="M285.18,114.93l-1.71-.05S284.61,115.92,285.18,114.93Z" style="fill:#263238"></path><path d="M288.37,116.56a18.41,18.41,0,0,1-1.26,4.86,2.93,2.93,0,0,0,2.48-.18Z" style="fill:#a02724"></path><path d="M292.53,123.25a.2.2,0,0,1-.16-.15.19.19,0,0,1,.14-.24,5.42,5.42,0,0,0,3.75-3.18.2.2,0,0,1,.26-.13.21.21,0,0,1,.13.25,5.78,5.78,0,0,1-4,3.45A.21.21,0,0,1,292.53,123.25Z" style="fill:#263238"></path><path d="M295.06,111a.34.34,0,0,1-.19-.09,3.18,3.18,0,0,0-2.84-.64.41.41,0,0,1-.51-.26.39.39,0,0,1,.25-.51,4,4,0,0,1,3.6.78.41.41,0,0,1-.31.72Z" style="fill:#263238"></path><path d="M281.61,113.38l-.08,0a.4.4,0,0,1-.25-.51,4,4,0,0,1,2.61-2.6.4.4,0,0,1,.49.29.41.41,0,0,1-.3.49,3.15,3.15,0,0,0-2,2.08A.4.4,0,0,1,281.61,113.38Z" style="fill:#263238"></path><path d="M320.75,149.64c-2.6,5.36-5.3,10.62-8.15,15.85-1.42,2.62-2.84,5.24-4.35,7.82s-3,5.17-4.79,7.76c-.41.64-.92,1.32-1.4,2l-.18.24-.09.13-.15.19c-.21.26-.42.48-.63.7a10.68,10.68,0,0,1-1.23,1.07,21.52,21.52,0,0,1-4.66,2.59,58.89,58.89,0,0,1-9,2.82,125.3,125.3,0,0,1-17.86,2.79l-.68-4.26c2.79-.74,5.63-1.52,8.42-2.33s5.56-1.67,8.26-2.61a64,64,0,0,0,7.69-3.16,15.71,15.71,0,0,0,2.95-1.89,3.14,3.14,0,0,0,.41-.41,1.37,1.37,0,0,0,.1-.14l.22-.34c.35-.55.71-1.07,1.07-1.69,1.42-2.39,2.82-4.95,4.18-7.51l4.05-7.77,8-15.68Z" style="fill:#b55b52"></path><path d="M270.32,189.38l-5.89-2.26.5,8.31s4.63,0,6.77-2.85Z" style="fill:#b55b52"></path><polygon points="259.8 187.36 258.54 193.47 264.93 195.43 264.43 187.12 259.8 187.36" style="fill:#b55b52"></polygon><path d="M313.5,138.2c-3.29,1.51-7.11,15.18-7.11,15.18L320.64,155s2.76-6.64,2.2-10.05C322,139.5,317.25,136.48,313.5,138.2Z" style="fill:#263238"></path><path d="M366,351.37a1.36,1.36,0,0,1-.13-.3.67.67,0,0,1,.1-.68c.69-.84,3.75-.5,4.09-.46a.19.19,0,0,1,.17.14.19.19,0,0,1-.06.21c-.87.73-2.49,1.9-3.53,1.6A1,1,0,0,1,366,351.37Zm3.53-1.09c-1.23-.1-2.88-.08-3.25.36a.3.3,0,0,0,0,.31.76.76,0,0,0,.5.55C367.33,351.66,368.35,351.21,369.55,350.28Z" style="fill:#407BFF"></path><path d="M366.75,348.61a1.09,1.09,0,0,1-.09-.23.71.71,0,0,1,.35-.81,1.07,1.07,0,0,1,.89-.13c1.19.32,2.29,2.51,2.34,2.6a.2.2,0,0,1,0,.2.21.21,0,0,1-.18.09A5.41,5.41,0,0,1,366.75,348.61Zm2.91,1.21c-.41-.72-1.17-1.81-1.87-2a.63.63,0,0,0-.55.08c-.22.14-.22.27-.19.36.15.58,1.63,1.39,2.64,1.6Z" style="fill:#407BFF"></path><path d="M319,359.91a3.35,3.35,0,0,1-2-.47,1.23,1.23,0,0,1-.51-1,.57.57,0,0,1,.25-.55c.91-.62,4.35.94,5,1.26a.21.21,0,0,1,.12.21.2.2,0,0,1-.16.17A13,13,0,0,1,319,359.91Zm-1.61-1.74a.74.74,0,0,0-.4.09s-.08.07-.07.19a.85.85,0,0,0,.35.67c.59.45,2,.51,3.8.17A12.52,12.52,0,0,0,317.42,358.17Z" style="fill:#407BFF"></path><path d="M321.75,359.57l-.08,0c-1.14-.46-3.44-2.31-3.31-3.26,0-.21.17-.47.69-.53,2-.24,2.86,3.41,2.9,3.56a.22.22,0,0,1-.07.2A.21.21,0,0,1,321.75,359.57Zm-2.51-3.42h-.14c-.21,0-.32.09-.34.19-.07.55,1.52,2,2.68,2.64C321.17,358.11,320.45,356.15,319.24,356.15Z" style="fill:#407BFF"></path><path d="M292.69,113l-1.72,0S292.12,114,292.69,113Z" style="fill:#263238"></path><path d="M296.62,368.47h54.72a1.42,1.42,0,0,1,1.42,1.42v4.62a0,0,0,0,1,0,0H295.21a0,0,0,0,1,0,0v-4.62A1.42,1.42,0,0,1,296.62,368.47Z" style="fill:#263238"></path><rect x="295.7" y="389.8" width="57.55" height="6.03" style="fill:#263238"></rect><rect x="315.2" y="389.8" width="38.05" height="6.03" style="opacity:0.5"></rect><path d="M320.74,374.5,314.27,415a1.43,1.43,0,0,1-1.4,1.2H309.7a1.42,1.42,0,0,1-1.4-1.64l6.41-40.1Z" style="fill:#263238"></path><polygon points="320.74 374.5 320.25 377.58 314.21 377.58 314.71 374.5 320.74 374.5" style="opacity:0.5"></polygon><path d="M301.24,374.5,294.77,415a1.43,1.43,0,0,1-1.4,1.2H290.2a1.42,1.42,0,0,1-1.4-1.64l6.41-40.1Z" style="fill:#263238"></path><path d="M359.16,414.6l-6.4-40.1h-6L353.2,415a1.42,1.42,0,0,0,1.4,1.2h3.16A1.42,1.42,0,0,0,359.16,414.6Z" style="fill:#263238"></path><polygon points="353.25 377.58 352.76 374.5 346.72 374.5 347.21 377.58 353.25 377.58" style="opacity:0.5"></polygon><path d="M339.66,414.6l-6.4-40.1h-6L333.7,415a1.42,1.42,0,0,0,1.4,1.2h3.16A1.42,1.42,0,0,0,339.66,414.6Z" style="fill:#263238"></path><path d="M339.66,414.6l-6.4-40.1h-6L333.7,415a1.42,1.42,0,0,0,1.4,1.2h3.16A1.42,1.42,0,0,0,339.66,414.6Z" style="opacity:0.5"></path><path d="M314.71,368.47h36.63a1.42,1.42,0,0,1,1.42,1.42v4.62a0,0,0,0,1,0,0h-38a0,0,0,0,1,0,0v-6A0,0,0,0,1,314.71,368.47Z" style="opacity:0.5"></path></g><g id="freepik--piggy-bank--inject-132"><polygon points="145.78 410.73 153.79 396.03 125.14 370.92 122.9 410.73 145.78 410.73" style="fill:#407BFF"></polygon><polygon points="145.78 410.73 153.79 396.03 125.14 370.92 122.9 410.73 145.78 410.73" style="opacity:0.1"></polygon><path d="M244.52,243.22c16.07-11,29.53-9.87,34-6.66s-9.73,27.59-9.73,27.59A38.53,38.53,0,0,1,244.52,243.22Z" style="fill:#407BFF"></path><path d="M252.17,254.27c9.05-8.89,18.28-11.74,20.78-10.25s-5.53,18.63-5.53,18.63S256.57,264.21,252.17,254.27Z" style="opacity:0.2"></path><path d="M104.89,277.7l-.91-.46a91.74,91.74,0,0,1,8.83-14.06l.81.62A91.69,91.69,0,0,0,104.89,277.7Z" style="fill:#407BFF"></path><path d="M100.13,289l-1-.33c.76-2.23,1.62-4.46,2.56-6.62l.94.41C101.73,284.58,100.88,286.78,100.13,289Z" style="fill:#407BFF"></path><path d="M287.11,316.75c0,49.65-37.38,89.89-91.34,89.89s-97.7-40.24-97.7-89.89,43.74-89.89,97.7-89.89S287.11,267.1,287.11,316.75Z" style="fill:#407BFF"></path><path d="M182.75,397.12l-3.91,8.18q4.24.69,8.61,1Z" style="opacity:0.1"></path><polygon points="176.83 416.24 188.07 396.03 152.12 382.89 147.52 416.24 176.83 416.24" style="fill:#407BFF"></polygon><polygon points="229.19 416.24 219.45 396.03 253.68 382.89 255.95 416.24 229.19 416.24" style="fill:#407BFF"></polygon><path d="M253.78,329.74c0,13.44-11.88,24.33-26.49,24.33s-26.44-10.89-26.44-24.33,11.84-24.33,26.44-24.33S253.78,316.3,253.78,329.74Z" style="opacity:0.2"></path><ellipse cx="218.51" cy="329.34" rx="4.49" ry="8.36" style="opacity:0.2"></ellipse><path d="M186.4,284.36c1.29,3.93.1,8.22-2.65,9.57s-6-.75-7.32-4.68-.11-8.22,2.64-9.57S185.11,280.42,186.4,284.36Z" style="opacity:0.4"></path><path d="M256,284.54c-1,3.93.23,8.17,2.71,9.46s5.28-.85,6.26-4.79-.23-8.17-2.71-9.46S257,280.6,256,284.54Z" style="opacity:0.4"></path><ellipse cx="242.4" cy="329.34" rx="4.49" ry="8.36" style="opacity:0.2"></ellipse><path d="M167.21,242.4c-17.41-14.42-33-15.54-38.38-12.92s8.61,30.89,8.61,30.89S156.54,259.25,167.21,242.4Z" style="fill:#407BFF"></path><path d="M157.41,252.78c-9.55-11-19.87-15.58-22.88-14.44S139.15,259,139.15,259,151.45,262.54,157.41,252.78Z" style="opacity:0.2"></path><path d="M202.37,234.68h14.71s-3.2-3.52-14.06-4.59a68.29,68.29,0,0,0-18.4,1S196.74,230.82,202.37,234.68Z" style="opacity:0.4"></path></g></svg>